<svg xmlns="http://www.w3.org/2000/svg" xmlns:xlink="http://www.w3.org/1999/xlink" viewBox="0,0,256,256" width="96px" height="96px" fill-rule="nonzero"><g fill="#e2e8f0" fill-rule="nonzero" stroke="none" stroke-width="1" stroke-linecap="butt" stroke-linejoin="miter" stroke-miterlimit="10" stroke-dasharray="" stroke-dashoffset="0" font-family="none" font-weight="none" font-size="none" text-anchor="none" style="mix-blend-mode: normal"><g transform="scale(5.33333,5.33333)"><path d="M20,24h-3l-4,11h3z"></path><path d="M21,10h3l10,25h-3z"></path><rect x="18" y="24" width="17" height="3"></rect><path d="M41.882,26c-0.999,8.986 -8.634,16 -17.882,16c-9.925,0 -18,-8.075 -18,-18c0,-9.925 8.075,-18 18,-18c9.587,0 17.426,7.541 17.949,17h2c-0.526,-10.562 -9.258,-19 -19.949,-19c-11.028,0 -20,8.972 -20,20c0,11.028 8.972,20 20,20c10.353,0 18.892,-7.907 19.899,-18z"></path></g></g></svg>